HIERARCHY
ROOT Hips
{
  OFFSET 40.9192 92.6879 18.85
  CHANNELS 6 Xposition Yposition Zposition Zrotation Xrotation Yrotation
  JOINT LeftUpLeg
  {
    OFFSET 8.64259 1.95398 -2.38835
    CHANNELS 3 Zrotation Xrotation Yrotation
    JOINT LeftLeg
    {
      OFFSET 43.7702 0 0
      CHANNELS 3 Zrotation Xrotation Yrotation
      JOINT LeftFoot
      {
        OFFSET 40.6238 0 0
        CHANNELS 3 Zrotation Xrotation Yrotation
        JOINT LeftToeBase
        {
          OFFSET 12.7242 0 0
          CHANNELS 3 Zrotation Xrotation Yrotation
          End Site
          {
            OFFSET 0 0 0
          }
        }
      }
    }
  }
  JOINT RightUpLeg
  {
    OFFSET -8.2249 1.95398 -2.59336
    CHANNELS 3 Zrotation Xrotation Yrotation
    JOINT RightLeg
    {
      OFFSET 43.5653 0 0
      CHANNELS 3 Zrotation Xrotation Yrotation
      JOINT RightFoot
      {
        OFFSET 40.6238 0 0
        CHANNELS 3 Zrotation Xrotation Yrotation
        JOINT RightToeBase
        {
          OFFSET 12.7242 0 0
          CHANNELS 3 Zrotation Xrotation Yrotation
          End Site
          {
            OFFSET 0 0 0
          }
        }
      }
    }
  }
  JOINT Spine
  {
    OFFSET 0.165834 0.87714 6.61349
    CHANNELS 3 Zrotation Xrotation Yrotation
    JOINT Spine1
    {
      OFFSET 7.38963 1.71661e-005 0
      CHANNELS 3 Zrotation Xrotation Yrotation
      JOINT Spine2
      {
        OFFSET 11.9445 1.14441e-005 0
        CHANNELS 3 Zrotation Xrotation Yrotation
        JOINT Spine3
        {
          OFFSET 14.7254 4.19617e-005 0
          CHANNELS 3 Zrotation Xrotation Yrotation
          JOINT Spine4
          {
            OFFSET 10.9679 0 0
            CHANNELS 3 Zrotation Xrotation Yrotation
            JOINT RightShoulder
            {
              OFFSET 2.46616 -1.6653 3.69651
              CHANNELS 3 Zrotation Xrotation Yrotation
              JOINT RightArm
              {
                OFFSET 13.0012 0 0
                CHANNELS 3 Zrotation Xrotation Yrotation
                JOINT RightForeArm
                {
                  OFFSET 28.7848 1.52588e-005 0
                  CHANNELS 3 Zrotation Xrotation Yrotation
                  JOINT RightHand
                  {
                    OFFSET 26.5688 1.52588e-005 0
                    CHANNELS 3 Zrotation Xrotation Yrotation
                    End Site
                    {
                      OFFSET 0 0 0
                    }
                  }
                }
              }
            }
            JOINT LeftShoulder
            {
              OFFSET 2.38034 -1.29275 -3.7523
              CHANNELS 3 Zrotation Xrotation Yrotation
              JOINT LeftArm
              {
                OFFSET 16.3182 6.10351e-005 0
                CHANNELS 3 Zrotation Xrotation Yrotation
                JOINT LeftForeArm
                {
                  OFFSET 27.0901 0 0
                  CHANNELS 3 Zrotation Xrotation Yrotation
                  JOINT LeftHand
                  {
                    OFFSET 24.5451 1.52588e-005 0
                    CHANNELS 3 Zrotation Xrotation Yrotation
                    End Site
                    {
                      OFFSET 0 0 0
                    }
                  }
                }
              }
            }
            JOINT Neck
            {
              OFFSET 5.0226 -0.0266342 0
              CHANNELS 3 Zrotation Xrotation Yrotation
              JOINT Head
              {
                OFFSET 6.69363 2.86102e-005 0
                CHANNELS 3 Zrotation Xrotation Yrotation
                End Site
                {
                  OFFSET 0 0 0
                }
              }
            }
          }
        }
      }
    }
  }
}
MOTION
Frames:	15
Frame Time:	0.0416667
-59.6681 97.5556 18.2899 -105.73 -83.378 -105.554 -170.233 1.96677 92.1938 -9.18793 6.02067 -3.02472 62.8383 1.91689 2.12208 27.5161 -0.962065 -0.332518 172.494 2.84362 88.8702 -11.3068 -7.81597 0.407843 64.1096 -2.22899 -1.21189 28.4803 0.161604 -2.63427 0.127887 7.27415 -89.9226 12.3254 0.290893 0.121582 0.65451 0.295967 0.108654 -21.8808 0.2409 0.203382 -1.86815 0.240914 0.203392 91.3016 -47.1032 -99.45 30.3183 -8.91817 3.55135 -4.2306 -21.3885 -43.0301 -6.4162 -0.838992 5.17097 -98.0614 -47.8166 66.0609 -26.0697 13.8964 4.62682 2.4307 9.39809 -32.2543 11.2375 0.850508 3.5037 15.1215 1.58019 0.508732 -4.5706 1.42232 1.30542 
-59.4897 97.5516 18.5386 -98.8926 -83.6656 -97.9098 -170.113 3.23658 92.7415 -10.0689 6.43713 -2.94041 63.6192 2.39138 2.99856 27.1695 -1.12691 -1.21363 172.889 2.86158 89.6215 -10.1194 -7.35517 0.607446 63.5483 -2.14533 -1.19076 28.3661 0.145872 -2.44899 0.135776 7.18423 -90.0122 12.5055 0.263957 -0.0548827 0.834611 0.261285 -0.0664545 -21.7008 0.268251 0.0269832 -1.68812 0.268248 0.0269761 91.4209 -47.1492 -99.25 30.1618 -8.85322 2.84575 -3.71796 -23.2528 -41.3197 -7.27041 -0.879516 4.68735 -98.1647 -47.8299 65.9117 -25.829 14.0466 4.37321 2.34743 9.44045 -32.1493 11.4327 0.808615 3.04717 14.5665 1.62788 0.074612 -4.20294 1.58123 1.49133 
-59.4076 97.5406 18.6744 -96.3249 -83.6777 -94.9081 -169.982 3.91828 93.1131 -10.8151 6.92675 -2.95546 63.8706 2.41661 3.57986 27.2984 -0.891541 -2.35299 173.084 2.62196 89.9913 -9.30417 -7.19816 0.702201 63.2191 -2.11154 -1.18353 28.5972 0.15508 -2.49913 0.131343 7.16139 -90.0825 12.5512 0.221675 -0.190518 0.880283 0.21308 -0.200096 -21.655 0.268687 -0.115087 -1.64233 0.268685 -0.115086 91.2615 -47.173 -99.4982 29.8081 -8.84048 2.55201 -3.096 -23.4097 -40.5953 -7.93595 -0.904974 4.48078 -98.1643 -48.0768 66.0001 -25.616 14.0613 4.15222 2.21868 9.25096 -32.1745 11.3906 0.829082 3.23835 14.4764 1.7325 0.291982 -4.08758 1.63214 1.36509 
-59.4125 97.5607 18.6638 -97.299 -83.5406 -95.8804 -169.954 3.76766 93.1214 -10.7953 6.7451 -2.95861 63.8989 2.4487 3.43375 27.1025 -1.08514 -1.98508 173.151 2.58519 90.0196 -9.4486 -7.24219 0.60575 63.3423 -2.16254 -1.21153 28.2556 0.131642 -2.29756 0.134162 7.18189 -90.0969 12.5103 0.220416 -0.218961 0.839326 0.210562 -0.228455 -21.6959 0.276034 -0.142591 -1.68326 0.276029 -0.142597 91.2366 -47.1593 -99.5409 29.8031 -8.74513 2.55751 -2.88559 -23.2545 -40.4532 -8.04244 -0.895387 4.30157 -98.2743 -48.1436 65.8606 -25.5183 14.1741 4.2816 2.35645 9.37566 -32.6046 11.636 0.860173 3.35636 14.148 1.8598 0.241122 -3.61948 1.776 1.3921 
-59.428 97.5591 18.7063 -96.6775 -83.4413 -95.2005 -169.947 3.79979 93.1619 -10.8288 6.69245 -2.92007 63.9986 2.48638 3.30295 27.0511 -1.18366 -1.50201 173.176 2.69333 90.0807 -9.59044 -7.35711 0.61806 63.2281 -2.11555 -1.18366 28.4324 0.149152 -2.46879 0.140207 7.18906 -90.1143 12.496 0.224145 -0.254158 0.825006 0.21275 -0.263788 -21.7102 0.290168 -0.175044 -1.69755 0.290176 -0.175045 91.5579 -47.0635 -99.0509 30.0555 -8.46898 2.32379 -3.30739 -23.6378 -40.5146 -7.86003 -0.932102 4.86859 -98.4384 -48.2188 65.644 -25.3176 14.0608 4.34791 2.61357 9.56737 -32.8323 11.2051 0.854448 3.55556 14.0573 1.81223 -0.0721062 -3.81515 1.80908 2.26821 
-59.4581 97.5401 18.7708 -96.2601 -83.2772 -94.79 -169.856 3.82124 93.2102 -10.9346 6.48066 -3.01761 64.2322 2.58799 3.14882 26.8595 -1.33136 -1.50435 173.177 2.51409 90.0955 -9.21554 -7.32117 0.627898 63.3657 -2.19152 -1.22874 28.1638 0.113702 -2.07803 0.12373 7.18557 -90.1142 12.5008 0.191519 -0.25017 0.82985 0.180319 -0.258364 -21.7053 0.257852 -0.181048 -1.69266 0.257849 -0.181044 91.2964 -47.1758 -99.4419 30.1143 -8.4538 2.57903 -3.09914 -23.1874 -40.6152 -7.42077 -0.900172 4.89483 -98.0781 -48.2102 66.1754 -25.3766 14.0992 4.26829 2.52818 9.45441 -32.757 11.1393 0.873586 3.75207 13.9178 2.04314 0.0949826 -3.89614 1.99237 2.04065 
-59.4791 97.552 18.8175 -95.5133 -83.2723 -94.1692 -169.944 3.66917 93.0753 -10.5387 6.43024 -2.97578 63.8722 2.49985 3.36945 27.429 -0.831693 -2.01265 173.11 2.83869 89.983 -9.72653 -7.66441 0.617887 63.2408 -2.10822 -1.17815 28.8274 0.178322 -2.73959 0.117568 7.18142 -90.0976 12.5131 0.187129 -0.216577 0.842183 0.17742 -0.224601 -21.693 0.243569 -0.150318 -1.68035 0.243568 -0.150326 91.4848 -47.4735 -99.0777 29.9234 -8.46029 2.46591 -3.41605 -23.6854 -40.4957 -7.83131 -0.927225 4.81335 -98.1577 -48.0779 66.0103 -25.2771 14.1506 4.38863 2.31811 9.29961 -32.4686 10.9572 0.794316 3.1923 13.7424 2.09411 -0.0567642 -3.94058 2.07976 2.34461 
-59.5351 97.5349 18.8353 -96.0768 -83.1765 -94.8097 -169.873 3.53789 93.0706 -10.5697 6.17271 -3.04048 64.2527 2.77921 2.96543 26.6134 -1.50252 -1.65435 173.106 2.68981 89.9579 -9.59516 -7.34441 0.593658 63.5568 -2.24777 -1.2579 28.2775 0.105367 -1.90765 0.117614 7.18709 -90.0901 12.4997 0.190811 -0.202034 0.828743 0.181728 -0.210233 -21.7065 0.242707 -0.135349 -1.69381 0.242703 -0.135346 91.4421 -47.381 -99.166 30.0883 -8.55773 2.68127 -3.61164 -23.8008 -40.5115 -7.91232 -0.931768 4.77434 -98.0921 -47.9578 66.065 -25.4447 13.9407 4.64135 2.44697 9.25104 -32.5615 10.8113 0.764577 3.01829 13.5171 2.10012 -0.0603885 -3.78394 2.09321 2.67715 
-59.548 97.5202 18.8967 -95.958 -83.1106 -94.7406 -169.872 3.64579 93.0494 -10.748 6.41282 -3.09378 63.8772 2.47589 3.47521 27.0487 -1.10434 -2.1642 173.102 2.7418 89.9312 -9.75593 -7.42251 0.576133 63.628 -2.29155 -1.28411 28.3983 0.111676 -1.92987 0.121435 7.19183 -90.0931 12.4904 0.196961 -0.208613 0.819403 0.1876 -0.217089 -21.7158 0.250558 -0.139773 -1.70315 0.250557 -0.139773 91.3015 -47.6028 -99.3396 29.8291 -8.54925 2.74696 -3.15937 -23.51 -40.2341 -8.17725 -0.92696 4.55104 -98.206 -48.0492 65.9287 -25.3885 13.7613 4.82962 2.52749 9.24078 -32.5952 10.6972 0.775414 3.17873 13.5759 2.07443 0.153156 -4.0857 2.01125 2.58404 
-59.609 97.5409 18.9382 -96.7364 -83.1632 -95.5718 -169.866 3.43319 93.0392 -10.616 6.13103 -3.07115 64.0673 2.73326 3.15398 27.153 -1.03295 -2.09682 173.131 2.68283 89.9204 -9.863 -7.44692 0.521067 63.6116 -2.27793 -1.27511 28.4967 0.135349 -2.2353 0.100027 7.21631 -90.0803 12.4414 0.16059 -0.178802 0.770407 0.152563 -0.185699 -21.7648 0.206895 -0.122272 -1.75213 0.206904 -0.122272 91.2285 -47.3389 -99.5133 30.2015 -8.52294 2.80732 -3.89379 -24.2869 -40.6284 -8.08183 -0.953564 4.85071 -97.8067 -47.7906 66.4317 -25.5772 13.8339 4.79196 2.32409 8.93976 -32.5666 10.828 0.750952 2.89244 13.6821 2.10191 0.108915 -4.3537 2.04178 2.52382 
-59.6234 97.5202 19.0021 -96.8017 -83.2758 -95.568 -169.918 3.49565 93.0606 -10.7911 6.31896 -2.99129 64.2173 2.82401 3.15427 26.734 -1.37898 -1.8911 173.144 2.54966 89.9837 -9.71515 -7.25547 0.561865 63.6516 -2.32065 -1.30357 28.4602 0.106365 -1.83644 0.107552 7.22356 -90.0951 12.4269 0.168518 -0.209234 0.755936 0.159153 -0.21645 -21.7792 0.22361 -0.148911 -1.76658 0.223614 -0.148909 91.4544 -47.3408 -99.1549 30.2136 -8.47733 2.76137 -3.82023 -24.2231 -40.5532 -8.2406 -0.961434 4.83226 -97.9597 -47.8514 66.2247 -25.605 13.6421 4.72162 2.4399 9.07559 -32.3599 10.8009 0.739007 2.80451 13.5892 2.03236 0.031253 -4.31839 1.99352 2.67472 
-59.6734 97.5146 19.0116 -96.22 -83.3651 -95.128 -170.023 3.4518 92.9223 -10.6215 6.07754 -2.93015 64.2034 2.85966 2.96521 26.5729 -1.49176 -1.97673 173.122 2.80203 89.9021 -10.0725 -7.33346 0.528752 63.74 -2.31713 -1.29825 28.5785 0.133117 -2.17174 0.101997 7.21319 -90.0775 12.4475 0.165843 -0.173721 0.776614 0.158041 -0.180852 -21.7586 0.210382 -0.115844 -1.74594 0.210383 -0.115845 91.4117 -47.4444 -99.1998 30.1787 -8.47252 2.92778 -3.84841 -24.1081 -40.6157 -7.78976 -0.927277 4.77966 -97.8884 -47.7898 66.3094 -25.6953 13.7017 4.73893 2.34435 9.00588 -32.2801 10.6303 0.753836 3.02919 13.4002 1.894 -0.0831646 -4.27949 1.88563 2.68223 
-59.7387 97.5342 19.057 -96.7574 -83.4968 -95.5607 -170.037 3.61147 93.033 -10.9897 6.40645 -2.85798 64.1852 2.74128 3.08849 27.4513 -0.892737 -1.34847 173.218 2.53571 90.0403 -9.76114 -6.95737 0.51601 63.7843 -2.36063 -1.32465 28.2514 0.0976645 -1.79762 0.0868073 7.22325 -90.0994 12.4274 0.125272 -0.212742 0.756479 0.115792 -0.21806 -21.7786 0.18342 -0.165255 -1.76598 0.183424 -0.165258 91.4026 -47.3424 -99.2367 30.0913 -8.464 2.84014 -3.95208 -24.2429 -40.666 -8.67014 -1.04186 5.45839 -97.6555 -47.8539 66.6791 -25.8214 13.7895 4.60395 2.41068 9.2211 -32.2428 10.582 0.734112 2.88397 13.3537 1.83196 0.322149 -4.31354 1.72933 2.18819 
-59.7444 97.5094 19.1153 -96.0862 -83.4142 -94.9047 -169.936 3.47609 93.0843 -10.6442 6.26852 -2.96461 64.0828 2.74582 3.04365 27.6588 -0.714173 -1.50798 173.181 2.68785 90.0262 -9.99973 -7.18077 0.539743 63.7078 -2.30065 -1.28601 28.6496 0.129605 -2.07807 0.115597 7.2187 -90.0955 12.4308 0.18434 -0.211905 0.759847 0.174834 -0.219821 -21.7753 0.239495 -0.146703 -1.76269 0.239499 -0.146717 91.3892 -47.2815 -99.2716 30.1111 -8.56851 2.92823 -3.91735 -24.127 -40.8252 -9.00896 -1.07527 5.56894 -97.9927 -47.7498 66.1394 -25.9318 13.5834 4.88339 2.52174 9.16361 -32.333 10.6831 0.734477 2.83025 13.4286 1.79842 0.155243 -4.45332 1.7328 2.47024 
-59.7681 97.5109 19.1605 -95.9192 -83.5147 -94.728 -170.032 3.65887 93.0442 -11.0293 6.46432 -2.86172 64.299 2.8135 3.12896 27.2904 -1.03185 -1.22891 173.173 2.57018 90.0396 -9.7874 -7.01596 0.570543 63.8033 -2.35971 -1.32327 28.4525 0.102218 -1.76282 0.101261 7.21905 -90.1015 12.4217 0.152976 -0.220461 0.750754 0.143128 -0.226985 -21.7844 0.212155 -0.164297 -1.77173 0.212165 -0.164294 91.292 -47.1292 -99.4596 30.156 -8.55864 3.03618 -4.03883 -23.8165 -41.0767 -7.59779 -0.945181 5.21058 -97.828 -47.8785 66.4304 -25.8917 13.6355 4.77632 2.64855 9.42654 -32.3972 10.8088 0.772916 3.0933 13.6687 2.02509 0.165713 -4.62313 1.94809 2.61998 
